<svg width="19" height="18" viewBox="0 0 19 18" fill="none" xmlns="http://www.w3.org/2000/svg">
<g id="apple 1" clip-path="url(#clip0_14_197)">
<path id="Vector" d="M12.1461 2.87081C12.4863 2.47869 12.7458 2.02322 12.9095 1.53056C13.0732 1.0379 13.1379 0.517761 13.1001 0C12.0556 0.0843127 11.086 0.575562 10.4002 1.36791C10.0719 1.74766 9.823 2.18945 9.66842 2.6671C9.51384 3.14476 9.45667 3.64858 9.5003 4.14872C10.0098 4.15297 10.5134 4.03992 10.9722 3.81832C11.431 3.59672 11.8327 3.27252 12.1461 2.87081ZM14.414 9.56636C14.42 8.87677 14.6017 8.20009 14.9418 7.60018C15.2819 7.00026 15.7692 6.4969 16.3578 6.13759C15.9864 5.60234 15.4953 5.16101 14.9236 4.84858C14.3518 4.53616 13.7152 4.36125 13.0641 4.33771C11.6602 4.19372 10.3642 5.15666 9.61729 5.15666C8.87034 5.15666 7.81741 4.35571 6.64749 4.37371C5.88266 4.3989 5.13741 4.6219 4.48444 5.02093C3.83146 5.41997 3.29306 5.98144 2.92174 6.65056C1.33784 9.40438 2.51676 13.4991 4.10066 15.722C4.82061 16.8109 5.72055 18.0438 6.90847 17.9988C8.09639 17.9538 8.48337 17.2609 9.86028 17.2609C11.2372 17.2609 11.6602 17.9988 12.8301 17.9718C14 17.9448 14.8279 16.8559 15.5839 15.767C16.1194 14.9764 16.5377 14.1125 16.8258 13.2021C16.1126 12.898 15.5041 12.3915 15.0755 11.7454C14.6468 11.0993 14.4169 10.3417 14.414 9.56636Z" fill="black"/>
</g>
<defs>
<clipPath id="clip0_14_197">
<rect width="18" height="18" fill="white" transform="translate(0.5)"/>
</clipPath>
</defs>
</svg>
